<svg width="120" height="120" viewBox="0 0 120 120" fill="none" xmlns="http://www.w3.org/2000/svg">
<circle cx="60" cy="60" r="60" fill="#F6F8FA"/>
<circle cx="60" cy="60" r="59.5" stroke="#7C7C7C" stroke-opacity="0.3"/>
<path d="M74 76.3333H46V73.0667C46 68.4 55.3333 65.8333 60 65.8333C64.6667 65.8333 74 68.4 74 73.0667M60 48.3333C61.8565 48.3333 63.637 49.0708 64.9497 50.3836C66.2625 51.6964 67 53.4768 67 55.3333C67 57.1899 66.2625 58.9703 64.9497 60.2831C63.637 61.5958 61.8565 62.3333 60 62.3333C58.1435 62.3333 56.363 61.5958 55.0503 60.2831C53.7375 58.9703 53 57.1899 53 55.3333C53 53.4768 53.7375 51.6964 55.0503 50.3836C56.363 49.0708 58.1435 48.3333 60 48.3333ZM60 39C60.6188 39 61.2123 39.2458 61.6499 39.6834C62.0875 40.121 62.3333 40.7145 62.3333 41.3333C62.3333 41.9522 62.0875 42.5457 61.6499 42.9833C61.2123 43.4208 60.6188 43.6667 60 43.6667C59.3812 43.6667 58.7877 43.4208 58.3501 42.9833C57.9125 42.5457 57.6667 41.9522 57.6667 41.3333C57.6667 40.7145 57.9125 40.121 58.3501 39.6834C58.7877 39.2458 59.3812 39 60 39ZM76.3333 39H66.58C65.6 36.2933 63.0333 34.3333 60 34.3333C56.9667 34.3333 54.4 36.2933 53.42 39H43.6667C42.429 39 41.242 39.4917 40.3668 40.3668C39.4917 41.242 39 42.429 39 43.6667V76.3333C39 77.571 39.4917 78.758 40.3668 79.6332C41.242 80.5083 42.429 81 43.6667 81H76.3333C77.571 81 78.758 80.5083 79.6332 79.6332C80.5083 78.758 81 77.571 81 76.3333V43.6667C81 42.429 80.5083 41.242 79.6332 40.3668C78.758 39.4917 77.571 39 76.3333 39Z" fill="#7C7C7C"/>
</svg>
