<svg width="24" height="24" viewBox="0 0 24 24" fill="none" xmlns="http://www.w3.org/2000/svg">
<path d="M14 2H6C4.9 2 4 2.9 4 4V20C4 21.1 4.9 22 6 22H18C19.1 22 20 21.1 20 20V8L14 2ZM18 20H6V4H13V9H18V20Z" fill="#7C7C7C"/>
<path d="M11.9996 13.6C13.049 13.6 13.8996 12.7493 13.8996 11.7C13.8996 10.6506 13.049 9.79999 11.9996 9.79999C10.9503 9.79999 10.0996 10.6506 10.0996 11.7C10.0996 12.7493 10.9503 13.6 11.9996 13.6Z" fill="#7C7C7C"/>
<path d="M12.0002 16.4C13.6002 16.4 15.1002 16.9 16.3002 17.7C15.3002 15.6 13.7002 14.3 12.0002 14.3C10.3002 14.3 8.7002 15.6 7.7002 17.7C8.9002 16.9 10.4002 16.4 12.0002 16.4Z" fill="#7C7C7C"/>
</svg>
