<svg width="26" height="26" viewBox="0 0 26 26" fill="none" xmlns="http://www.w3.org/2000/svg">
<g clip-path="url(#clip0_104_381)">
<path d="M13.0017 23.977C12.8995 23.9769 12.7987 23.9526 12.7076 23.9061C12.6389 23.8715 10.9998 23.032 8.85853 21.4747C6.88251 20.0349 4.09213 17.6874 2.03437 14.6674C1.73286 14.2263 1.46123 13.7656 1.2213 13.2882C1.17191 13.1893 1.1486 13.0794 1.15359 12.969C1.15859 12.8586 1.19172 12.7512 1.24985 12.6572C1.30795 12.5631 1.38916 12.4854 1.48574 12.4315C1.58233 12.3776 1.69109 12.3493 1.8017 12.3493H5.9743L7.03172 10.8356C7.09547 10.7442 7.18169 10.6707 7.28206 10.6223C7.38244 10.574 7.49358 10.5522 7.60479 10.5593C7.716 10.5663 7.82353 10.6019 7.917 10.6625C8.01047 10.7232 8.08673 10.8069 8.13845 10.9056L9.40735 13.3275L11.5421 8.7562C11.5993 8.63301 11.6938 8.5309 11.8122 8.46426C11.9305 8.39762 12.0668 8.36982 12.2018 8.38477C12.3368 8.39973 12.4637 8.45668 12.5647 8.54761C12.6656 8.63853 12.7354 8.75884 12.7643 8.89156L14.0963 14.955L15.975 10.9329C16.0262 10.8233 16.1069 10.7302 16.2082 10.6641C16.3094 10.5979 16.4271 10.5614 16.548 10.5586C16.6689 10.5558 16.7881 10.5869 16.8923 10.6483C16.9965 10.7097 17.0814 10.799 17.1376 10.9061L18.5194 13.5442L19.159 12.6274C19.2188 12.5417 19.2984 12.4718 19.391 12.4236C19.4836 12.3753 19.5865 12.3501 19.691 12.3501H23.7926C25.0291 9.59478 24.6446 6.85111 22.7343 4.94991C20.5516 2.77668 17 2.77668 14.8169 4.94991C14.4467 5.31839 13.9804 5.75476 13.487 6.21709L13.4459 6.25515C13.3257 6.36764 13.1672 6.43023 13.0026 6.43023C12.838 6.43023 12.6795 6.36764 12.5593 6.25515L12.516 6.21492C12.0226 5.75087 11.5572 5.31839 11.1875 4.94861C9.00471 2.77581 5.45272 2.77581 3.26998 4.94861C1.82548 6.38619 1.23731 8.3315 1.60838 10.4252C1.63858 10.5945 1.60028 10.7689 1.5019 10.91C1.40352 11.0512 1.25312 11.1474 1.08377 11.1777C0.999887 11.1926 0.913877 11.1909 0.830655 11.1726C0.747434 11.1543 0.668632 11.1198 0.598751 11.071C0.52887 11.0223 0.469279 10.9602 0.423381 10.8884C0.377483 10.8167 0.346177 10.7365 0.331253 10.6526C0.108524 9.40319 0.172099 8.19181 0.519816 7.05221C0.870669 5.90774 1.5012 4.86875 2.35441 4.02915C5.0423 1.35381 9.41514 1.35381 12.103 4.02915C12.3586 4.28388 12.6678 4.57754 13.0017 4.89152C13.3356 4.57754 13.6448 4.28605 13.9009 4.02915C16.5883 1.35381 20.9616 1.35381 23.649 4.02915C24.8039 5.16618 25.5415 6.65941 25.7427 8.26749C25.9464 9.88757 25.6129 11.6231 24.7821 13.2873C24.727 13.3977 24.6415 13.4901 24.5357 13.5536C24.4299 13.6171 24.3082 13.6491 24.1849 13.6459H20.03L18.9722 15.1595C18.9087 15.2513 18.8227 15.3251 18.7223 15.3739C18.622 15.4226 18.5108 15.4447 18.3995 15.438C18.2881 15.4312 18.1804 15.3959 18.0867 15.3354C17.993 15.2749 17.9165 15.1912 17.8646 15.0925L16.5957 12.6706L14.4609 17.2398C14.4034 17.3625 14.309 17.4641 14.1908 17.5304C14.0726 17.5966 13.9367 17.6242 13.802 17.6093C13.6673 17.5944 13.5407 17.5377 13.4399 17.4471C13.3391 17.3566 13.2692 17.2367 13.24 17.1044L11.908 11.041L10.0293 15.0631C9.97809 15.1726 9.89736 15.2656 9.79617 15.3316C9.69498 15.3977 9.57735 15.4342 9.45654 15.4369C9.33573 15.4397 9.21654 15.4087 9.11241 15.3474C9.00828 15.2861 8.92335 15.1969 8.86718 15.0899L7.4854 12.4518L6.84489 13.3682C6.78512 13.4538 6.7056 13.5236 6.61307 13.5719C6.52054 13.6202 6.41773 13.6454 6.31337 13.6454H2.91534C2.97719 13.7427 3.0412 13.8392 3.1065 13.9352C5.05397 16.793 7.71418 19.0337 9.60284 20.4121C10.69 21.208 11.8249 21.9365 13.0013 22.5935C14.1867 21.9392 18.7036 19.2867 21.9714 15.1903C22.0238 15.1216 22.0894 15.0641 22.1643 15.0211C22.2392 14.9782 22.3219 14.9506 22.4076 14.94C22.4933 14.9294 22.5803 14.9361 22.6634 14.9595C22.7465 14.983 22.8241 15.0228 22.8916 15.0766C22.9591 15.1305 23.0152 15.1972 23.0566 15.273C23.0979 15.3488 23.1238 15.4321 23.1325 15.5181C23.1413 15.604 23.1328 15.6908 23.1076 15.7733C23.0823 15.8559 23.0409 15.9326 22.9856 15.999C20.9175 18.5939 18.397 20.6019 16.6467 21.8315C14.7503 23.1635 13.3546 23.8784 13.2958 23.9074C13.2046 23.9534 13.1039 23.9773 13.0017 23.977Z" fill="#192636"/>
</g>
<defs>
<clipPath id="clip0_104_381">
<rect width="25.6" height="25.6" fill="white" transform="translate(0.201172 0.199951)"/>
</clipPath>
</defs>
</svg>
