<svg width="26" height="26" viewBox="0 0 26 26" fill="none" xmlns="http://www.w3.org/2000/svg">
<g clip-path="url(#clip0_104_359)">
<mask id="mask0_104_359" style="mask-type:luminance" maskUnits="userSpaceOnUse" x="0" y="0" width="26" height="26">
<path d="M0.203125 0.199806H25.8031V25.7998H0.203125V0.199806Z" fill="white"/>
</mask>
<g mask="url(#mask0_104_359)">
<path d="M10.9411 24.4791C12.1036 24.8493 13.3419 25.0498 14.6271 25.0498C19.0588 25.0498 22.935 22.6736 25.0527 19.126C23.6863 19.7183 22.1793 20.0473 20.5952 20.0473C14.3993 20.0473 9.37646 15.0246 9.37646 8.82866C9.37646 5.75781 10.6108 2.97561 12.6097 0.949806C6.86866 1.91071 2.49316 6.90186 2.49316 12.9158C2.49316 15.1112 3.07626 17.1703 4.09596 18.947" stroke="#192636" stroke-width="0.8" stroke-miterlimit="10" stroke-linecap="round" stroke-linejoin="round"/>
<path d="M9.65293 21.5699C9.62728 21.5699 9.60188 21.5708 9.57653 21.5718C9.53773 19.7248 8.02938 18.2391 6.17298 18.2391C4.31663 18.2391 2.80828 19.7248 2.76953 21.5718C2.74413 21.5708 2.71872 21.5699 2.69307 21.5699C1.73212 21.5699 0.953125 22.3489 0.953125 23.3099C0.953125 24.2708 1.73212 25.0498 2.69307 25.0498H9.65293C10.6139 25.0498 11.3929 24.2708 11.3929 23.3099C11.3929 22.3489 10.6139 21.5699 9.65293 21.5699Z" stroke="#192636" stroke-width="0.8" stroke-miterlimit="10" stroke-linecap="round" stroke-linejoin="round"/>
<path d="M22.1305 8.96805C22.1049 8.96805 22.0794 8.96895 22.0541 8.97C22.0153 7.12295 20.5069 5.6373 18.6506 5.6373C16.7942 5.6373 15.2858 7.12295 15.2471 8.97C15.2217 8.96895 15.1963 8.96805 15.1707 8.96805C14.2097 8.96805 13.4307 9.74705 13.4307 10.708C13.4307 11.669 14.2097 12.448 15.1707 12.448H22.1305C23.0915 12.448 23.8705 11.669 23.8705 10.708C23.8705 9.74705 23.0915 8.96805 22.1305 8.96805Z" stroke="#192636" stroke-width="0.8" stroke-miterlimit="10" stroke-linecap="round" stroke-linejoin="round"/>
</g>
</g>
<defs>
<clipPath id="clip0_104_359">
<rect width="25.6" height="25.6" fill="white" transform="translate(0.203125 0.199829)"/>
</clipPath>
</defs>
</svg>
