<svg width="30" height="26" viewBox="0 0 30 26" fill="none" xmlns="http://www.w3.org/2000/svg">
<path d="M26.0223 9.0424C25.7527 8.88895 24.3933 8.1676 22.4178 8.11675C22.3755 6.0274 21.5956 4.63735 21.5596 4.57525C21.4768 4.43125 21.3355 4.3498 21.1461 4.34935C20.7816 4.36015 19.5643 4.456 18.1428 5.12515C17.0407 2.6983 15.3123 1.61425 15.2349 1.567C15.09 1.4788 14.9086 1.4788 14.7637 1.567C14.6868 1.6147 12.9538 2.701 11.8513 5.13415C10.4154 4.4569 9.18327 4.36015 8.80797 4.34935C8.63652 4.34305 8.47677 4.43845 8.39577 4.5892C8.20632 4.9429 7.57632 6.25645 7.54167 8.1181C5.49372 8.1874 4.12932 8.95555 3.97452 9.04645C3.83502 9.1288 3.75042 9.28045 3.75402 9.4429C3.75762 9.59725 3.87597 13.2531 7.47597 15.8032C9.15312 16.9962 11.5282 17.7022 13.704 17.7022C14.0685 17.7022 14.4253 17.6779 14.7745 17.6374C15 17.7 15.3208 17.6374 15.4351 17.6068C15.8455 17.6671 16.2631 17.6995 16.6861 17.6995C18.7017 17.6995 20.8068 17.0281 22.5271 15.8041C26.128 13.2567 26.2464 9.5977 26.2495 9.4429C26.2531 9.27775 26.1654 9.12385 26.0223 9.0424ZM7.99662 15.0693C5.26422 13.1338 4.76472 10.5373 4.67382 9.69535C5.12247 9.48025 6.17187 9.0667 7.57722 9.019C7.65417 9.91405 7.87377 10.9005 8.33727 11.9503C9.23907 13.9902 10.8397 15.7191 12.6766 16.7329C10.9873 16.5529 9.25032 15.9612 7.99662 15.0693ZM9.16077 11.5872C7.83282 8.57845 8.70132 6.08365 9.06672 5.266C9.55677 5.311 10.4766 5.46625 11.5224 5.9707C11.2708 6.69655 11.0958 7.4692 11.0103 8.27965C10.7205 11.0584 11.4607 13.8511 12.912 15.8325C11.3289 14.9023 9.95277 13.3786 9.16077 11.5872ZM15.0009 16.6969C14.9914 16.6911 14.982 16.6857 14.9725 16.6803C12.8247 15.0508 11.5651 11.6457 11.9058 8.3737C11.9985 7.4998 12.1974 6.67225 12.498 5.91265C13.2562 3.9817 14.4874 2.8918 15 2.5003C15.5121 2.8909 16.7401 3.97855 17.4975 5.90365C17.8026 6.6781 18.0033 7.50925 18.0942 8.37325C18.4384 11.6695 17.1685 15.076 15.0009 16.6969ZM18.9883 8.2792C18.9037 7.4755 18.7269 6.6997 18.4717 5.96215C19.5018 5.46625 20.4076 5.3119 20.8986 5.26645C21.1204 5.7592 21.5682 6.96115 21.516 8.5501C21.4822 9.5662 21.2419 10.5882 20.8023 11.5863C19.9792 13.4403 18.568 15.0306 16.9741 15.981C18.5019 13.996 19.2876 11.139 18.9883 8.2792ZM22.006 15.0697C20.6425 16.0399 19.0189 16.6204 17.4178 16.759C19.1769 15.7114 20.7271 13.9735 21.6253 11.9499C22.0488 10.9882 22.2945 10.0045 22.3782 9.01945C23.8015 9.05725 24.8491 9.4654 25.3288 9.6958C25.2384 10.5391 24.7389 13.1365 22.006 15.0697Z" fill="#192636"/>
<path d="M26.6998 19.95C25.1694 19.95 24.3927 20.1889 23.6416 20.4198C22.9225 20.6412 22.2435 20.85 20.848 20.85C19.453 20.85 18.774 20.6412 18.0549 20.4198C17.3038 20.1889 16.5276 19.95 14.9967 19.95C13.4671 19.95 12.6913 20.1889 11.9407 20.4198C11.2221 20.6412 10.5435 20.85 9.14935 20.85C7.75435 20.85 7.07575 20.6412 6.35665 20.4198C5.60605 20.1889 4.82935 19.95 3.2998 19.95V20.85C4.69435 20.85 5.37295 21.0588 6.09205 21.2802C6.84265 21.511 7.61935 21.75 9.14935 21.75C10.6789 21.75 11.4547 21.511 12.2053 21.2802C12.924 21.0588 13.603 20.85 14.9967 20.85C16.3921 20.85 17.0712 21.0588 17.7903 21.2802C18.5413 21.511 19.318 21.75 20.848 21.75C22.3785 21.75 23.1552 21.511 23.9062 21.2802C24.6253 21.0588 25.3044 20.85 26.6998 20.85V19.95Z" fill="#192636"/>
<path d="M26.6998 24V23.1C25.1694 23.1 24.3927 23.3389 23.6416 23.5698C22.9225 23.7912 22.2435 24 20.848 24C19.453 24 18.774 23.7912 18.0549 23.5698C17.3038 23.3389 16.5276 23.1 14.9967 23.1C13.4671 23.1 12.6913 23.3389 11.9407 23.5698C11.2221 23.7912 10.5435 24 9.14935 24C7.75435 24 7.07575 23.7912 6.35665 23.5698C5.60605 23.3389 4.82935 23.1 3.2998 23.1V24C4.69435 24 5.37295 24.2088 6.09205 24.4302C6.84265 24.661 7.61935 24.9 9.14935 24.9C10.6789 24.9 11.4547 24.661 12.2053 24.4302C12.924 24.2088 13.603 24 14.9967 24C16.3921 24 17.0712 24.2088 17.7903 24.4302C18.5413 24.661 19.318 24.9 20.848 24.9C22.3785 24.9 23.1552 24.661 23.9062 24.4302C24.6253 24.2088 25.3044 24 26.6998 24Z" fill="#192636"/>
</svg>
