<svg width="26" height="26" viewBox="0 0 26 26" fill="none" xmlns="http://www.w3.org/2000/svg">
<g clip-path="url(#clip0_104_391)">
<path d="M13.2012 20.8V17.2C13.2012 16.0954 14.0966 15.2 15.2012 15.2H20.8012C21.9057 15.2 22.8012 16.0954 22.8012 17.2V20.8" stroke="#192636" stroke-width="0.8" stroke-miterlimit="10" stroke-linecap="round" stroke-linejoin="round"/>
<path d="M11.2012 20.7999H24.8012" stroke="#192636" stroke-width="0.8" stroke-miterlimit="10" stroke-linecap="round" stroke-linejoin="round"/>
<path d="M13.2012 24.7999V20.7999" stroke="#192636" stroke-width="0.8" stroke-miterlimit="10" stroke-linecap="round" stroke-linejoin="round"/>
<path d="M22.8008 24.7999V20.7999" stroke="#192636" stroke-width="0.8" stroke-miterlimit="10" stroke-linecap="round" stroke-linejoin="round"/>
<path d="M24.8012 24.7999H1.20117" stroke="#192636" stroke-width="0.8" stroke-miterlimit="10" stroke-linecap="round" stroke-linejoin="round"/>
<path d="M5.20117 7.19995L7.20117 9.19995L9.20117 7.19995" stroke="#192636" stroke-width="0.8" stroke-miterlimit="10" stroke-linecap="round" stroke-linejoin="round"/>
<path d="M7.20117 24.8V9.19995" stroke="#192636" stroke-width="0.8" stroke-miterlimit="10" stroke-linecap="round" stroke-linejoin="round"/>
<path d="M13.2012 9.19995C13.2012 12.5137 10.5149 13.2 7.20117 13.2C3.88747 13.2 1.20117 12.5137 1.20117 9.19995C1.20117 5.88625 3.88747 1.19995 7.20117 1.19995C10.5149 1.19995 13.2012 5.88625 13.2012 9.19995Z" stroke="#192636" stroke-width="0.8" stroke-miterlimit="10" stroke-linecap="round" stroke-linejoin="round"/>
</g>
<defs>
<clipPath id="clip0_104_391">
<rect width="25.6" height="25.6" fill="white" transform="translate(0.201172 0.199951)"/>
</clipPath>
</defs>
</svg>
