<svg width="16" height="16" viewBox="0 0 16 16" fill="none" xmlns="http://www.w3.org/2000/svg">
<path d="M8.71533 11.3683C8.71533 12.0573 9.2759 12.6179 9.96493 12.6179H11.4332C12.1222 12.6179 12.6828 12.0573 12.6828 11.3683V9.90002C12.6828 9.21099 12.1222 8.65042 11.4332 8.65042H9.96493C9.2759 8.65042 8.71533 9.21099 8.71533 9.90002V11.3683ZM9.96493 9.90002H11.4332L11.434 11.3683C11.434 11.3683 11.4338 11.3683 11.4332 11.3683H9.96493V9.90002Z" fill="#192636"/>
<path d="M12.0652 7.15447C12.4064 7.15447 12.683 6.87784 12.683 6.53659C12.683 6.19534 12.4064 5.9187 12.0652 5.9187C11.7239 5.9187 11.4473 6.19534 11.4473 6.53659C11.4473 6.87784 11.7239 7.15447 12.0652 7.15447Z" fill="#192636"/>
<path d="M9.33322 7.15447C9.67447 7.15447 9.9511 6.87784 9.9511 6.53659C9.9511 6.19534 9.67447 5.9187 9.33322 5.9187C8.99197 5.9187 8.71533 6.19534 8.71533 6.53659C8.71533 6.87784 8.99197 7.15447 9.33322 7.15447Z" fill="#192636"/>
<path d="M15.375 11C15.7202 11 16 10.7202 16 10.375V3.75C16 2.3715 14.8785 1.25 13.5 1.25H12.6875V0.625C12.6875 0.279813 12.4077 0 12.0625 0C11.7173 0 11.4375 0.279813 11.4375 0.625V1.25H8.59375V0.625C8.59375 0.279813 8.31394 0 7.96875 0C7.62356 0 7.34375 0.279813 7.34375 0.625V1.25H4.53125V0.625C4.53125 0.279813 4.25144 0 3.90625 0C3.56106 0 3.28125 0.279813 3.28125 0.625V1.25H2.5C1.1215 1.25 0 2.3715 0 3.75V13.5C0 14.8785 1.1215 16 2.5 16H13.5C14.8785 16 16 14.8785 16 13.5C16 13.1548 15.7202 12.875 15.375 12.875C15.0298 12.875 14.75 13.1548 14.75 13.5C14.75 14.1892 14.1892 14.75 13.5 14.75H2.5C1.81075 14.75 1.25 14.1892 1.25 13.5V3.75C1.25 3.06075 1.81075 2.5 2.5 2.5H3.28125V3.125C3.28125 3.47019 3.56106 3.75 3.90625 3.75C4.25144 3.75 4.53125 3.47019 4.53125 3.125V2.5H7.34375V3.125C7.34375 3.47019 7.62356 3.75 7.96875 3.75C8.31394 3.75 8.59375 3.47019 8.59375 3.125V2.5H11.4375V3.125C11.4375 3.47019 11.7173 3.75 12.0625 3.75C12.4077 3.75 12.6875 3.47019 12.6875 3.125V2.5H13.5C14.1892 2.5 14.75 3.06075 14.75 3.75V10.375C14.75 10.7202 15.0298 11 15.375 11Z" fill="#192636"/>
<path d="M3.93502 12.6179C4.27627 12.6179 4.55291 12.3412 4.55291 12C4.55291 11.6587 4.27627 11.3821 3.93502 11.3821C3.59378 11.3821 3.31714 11.6587 3.31714 12C3.31714 12.3412 3.59378 12.6179 3.93502 12.6179Z" fill="#192636"/>
<path d="M3.93502 7.15447C4.27627 7.15447 4.55291 6.87784 4.55291 6.53659C4.55291 6.19534 4.27627 5.9187 3.93502 5.9187C3.59378 5.9187 3.31714 6.19534 3.31714 6.53659C3.31714 6.87784 3.59378 7.15447 3.93502 7.15447Z" fill="#192636"/>
<path d="M3.93502 9.88619C4.27627 9.88619 4.55291 9.60956 4.55291 9.26831C4.55291 8.92706 4.27627 8.65042 3.93502 8.65042C3.59378 8.65042 3.31714 8.92706 3.31714 9.26831C3.31714 9.60956 3.59378 9.88619 3.93502 9.88619Z" fill="#192636"/>
<path d="M6.60153 9.88619C6.94278 9.88619 7.21941 9.60956 7.21941 9.26831C7.21941 8.92706 6.94278 8.65042 6.60153 8.65042C6.26028 8.65042 5.98364 8.92706 5.98364 9.26831C5.98364 9.60956 6.26028 9.88619 6.60153 9.88619Z" fill="#192636"/>
<path d="M6.60153 7.15447C6.94278 7.15447 7.21941 6.87784 7.21941 6.53659C7.21941 6.19534 6.94278 5.9187 6.60153 5.9187C6.26028 5.9187 5.98364 6.19534 5.98364 6.53659C5.98364 6.87784 6.26028 7.15447 6.60153 7.15447Z" fill="#192636"/>
<path d="M6.60153 12.6179C6.94278 12.6179 7.21941 12.3412 7.21941 12C7.21941 11.6587 6.94278 11.3821 6.60153 11.3821C6.26028 11.3821 5.98364 11.6587 5.98364 12C5.98364 12.3412 6.26028 12.6179 6.60153 12.6179Z" fill="#192636"/>
</svg>
