<svg width="17" height="16" viewBox="0 0 17 16" fill="none" xmlns="http://www.w3.org/2000/svg">
<path d="M8.5 0C4.0888 0 0.5 3.5888 0.5 8C0.5 12.4112 4.0888 16 8.5 16C12.9112 16 16.5 12.4112 16.5 8C16.5 3.5888 12.9112 0 8.5 0ZM8.5 14.7692C4.76745 14.7692 1.73077 11.7326 1.73077 8C1.73077 4.26745 4.76745 1.23077 8.5 1.23077C12.2326 1.23077 15.2692 4.26745 15.2692 8C15.2692 11.7326 12.2326 14.7692 8.5 14.7692Z" fill="#192636"/>
<path d="M10.2815 6.10863C10.2815 6.45028 10.557 6.72726 10.8969 6.72726C11.2367 6.72726 11.5122 6.45028 11.5122 6.10863C11.5122 5.42351 11.1598 4.76479 10.5451 4.30139C10.1253 3.98486 9.60874 3.77341 9.05071 3.68346V3.01542C9.05071 2.67377 8.77518 2.39679 8.43532 2.39679C8.09546 2.39679 7.81994 2.67377 7.81994 3.01542V3.68346C7.26186 3.77341 6.74531 3.98486 6.32554 4.30139C5.71089 4.76479 5.3584 5.42351 5.3584 6.10863C5.3584 6.79374 5.71089 7.45242 6.32554 7.91586C6.74535 8.23239 7.26191 8.44384 7.81994 8.53379V10.9839C7.11101 10.8098 6.58917 10.3473 6.58917 9.82042C6.58917 9.47877 6.31364 9.20179 5.97378 9.20179C5.63393 9.20179 5.3584 9.47877 5.3584 9.82042C5.3584 10.5055 5.71089 11.1642 6.32554 11.6277C6.74535 11.9442 7.26191 12.1556 7.81994 12.2456V12.9199C7.81994 13.2615 8.09546 13.5385 8.43532 13.5385C8.77518 13.5385 9.05071 13.2615 9.05071 12.9199V12.2456C9.60878 12.1556 10.1253 11.9442 10.5451 11.6277C11.1598 11.1643 11.5122 10.5055 11.5122 9.82042C11.5122 9.13531 11.1598 8.47659 10.5451 8.01319C10.1253 7.69666 9.60874 7.48521 9.05071 7.39526V4.9451C9.75963 5.11931 10.2815 5.58176 10.2815 6.10863ZM6.58917 6.10863C6.58917 5.58176 7.11101 5.11927 7.81994 4.9451V7.27211C7.11101 7.09799 6.58917 6.6355 6.58917 6.10863ZM10.2815 9.82042C10.2815 10.3473 9.75963 10.8098 9.05071 10.9839V8.65694C9.75963 8.83111 10.2815 9.29355 10.2815 9.82042Z" fill="#192636"/>
</svg>
