<svg width="16" height="16" viewBox="0 0 16 16" fill="none" xmlns="http://www.w3.org/2000/svg">
<path fill-rule="evenodd" clip-rule="evenodd" d="M8.37817 0.156212C8.27788 0.0561915 8.14185 0 8.00002 0C7.85819 0 7.72217 0.0561899 7.62187 0.15621C7.5755 0.202457 7.48099 0.282778 7.31839 0.419195L7.30093 0.433836C7.15064 0.559909 6.96216 0.718027 6.75167 0.903669C6.314 1.28967 5.77525 1.79974 5.25123 2.42061C4.20896 3.6555 3.18701 5.37429 3.18701 7.46667C3.18701 9.55904 4.20896 11.2778 5.25123 12.5127C5.77525 13.1336 6.314 13.6437 6.75167 14.0297C6.96214 14.2153 7.15059 14.3734 7.30088 14.4995L7.31839 14.5141C7.37543 14.562 7.4241 14.6029 7.46524 14.638V15.4667C7.46524 15.7612 7.70467 16 8.00002 16C8.29537 16 8.5348 15.7612 8.5348 15.4667V14.638C8.57592 14.6029 8.62459 14.562 8.68165 14.5141L8.69914 14.4995C8.84946 14.3734 9.03792 14.2153 9.24835 14.0297C9.68607 13.6437 10.2248 13.1336 10.7488 12.5127C11.7911 11.2778 12.813 9.55904 12.813 7.46667C12.813 5.37429 11.7911 3.6555 10.7488 2.42061C10.2248 1.79975 9.68607 1.28968 9.24835 0.903675C9.03787 0.718027 8.84941 0.559925 8.69914 0.433847L8.68165 0.419197C8.51906 0.28278 8.42454 0.202459 8.37817 0.156212ZM8.5348 13.235L8.53983 13.2306C8.95444 12.865 9.45184 12.393 9.93057 11.8258C10.8937 10.6847 11.7435 9.20347 11.7435 7.46667C11.7435 5.72987 10.8937 4.24866 9.93057 3.10751C9.45184 2.54036 8.95444 2.06839 8.53983 1.70271C8.33945 1.52598 8.15976 1.37523 8.00891 1.24868L8.00002 1.24123L7.99115 1.24867C7.8403 1.37522 7.6606 1.52597 7.4602 1.70271C7.04557 2.06839 6.54819 2.54035 6.0695 3.10751C5.10635 4.24866 4.25657 5.72987 4.25657 7.46667C4.25657 9.20347 5.10635 10.6847 6.0695 11.8258C6.54819 12.393 7.04557 12.865 7.4602 13.2306L7.46524 13.235V11.4209L6.01754 9.97712C5.80869 9.76885 5.80869 9.43115 6.01754 9.22288C6.22638 9.01461 6.56498 9.01461 6.77383 9.22288L7.46524 9.91243V8.75424L6.01754 7.31045C5.80869 7.10219 5.80869 6.76448 6.01754 6.55621C6.22638 6.34795 6.56498 6.34795 6.77383 6.55621L7.46524 7.24576V4.26667C7.46524 3.97212 7.70467 3.73333 8.00002 3.73333C8.29537 3.73333 8.5348 3.97212 8.5348 4.26667V6.17909L9.22621 5.48955C9.43505 5.28126 9.77367 5.28126 9.9825 5.48955C10.1913 5.69781 10.1913 6.03552 9.9825 6.24379L8.5348 7.68757V8.84576L9.22621 8.15621C9.43505 7.94795 9.77367 7.94795 9.9825 8.15621C10.1913 8.36448 10.1913 8.70219 9.9825 8.91045L8.5348 10.3542V11.1995V11.2005V13.235Z" fill="#192636"/>
</svg>
