<svg width="22" height="22" viewBox="0 0 22 22" fill="none" xmlns="http://www.w3.org/2000/svg">
<path d="M19.4912 10.7904C19.2861 10.6736 18.2517 10.1248 16.7486 10.0861C16.7164 8.49636 16.1231 7.43871 16.0957 7.39146C16.0327 7.2819 15.9252 7.21993 15.781 7.21958C15.5037 7.2278 14.5775 7.30073 13.4959 7.80987C12.6574 5.96335 11.3423 5.13853 11.2834 5.10258C11.1731 5.03547 11.0351 5.03547 10.9249 5.10258C10.8663 5.13887 9.54778 5.9654 8.70892 7.81671C7.61635 7.30141 6.67889 7.2278 6.39333 7.21958C6.26288 7.21479 6.14133 7.28738 6.0797 7.40208C5.93555 7.6712 5.45621 8.67064 5.42984 10.0871C3.87162 10.1398 2.83349 10.7243 2.71571 10.7935C2.60957 10.8561 2.5452 10.9715 2.54794 11.0951C2.55067 11.2126 2.64072 13.9941 5.37985 15.9345C6.65595 16.8421 8.46309 17.3794 10.1185 17.3794C10.3959 17.3794 10.6674 17.3609 10.9331 17.3301C11.1046 17.3777 11.3488 17.3301 11.4357 17.3068C11.748 17.3527 12.0657 17.3773 12.3876 17.3773C13.9211 17.3773 15.5229 16.8665 16.8318 15.9352C19.5716 13.9969 19.6617 11.2129 19.6641 11.0951C19.6668 10.9695 19.6 10.8524 19.4912 10.7904ZM5.776 15.376C3.697 13.9034 3.31695 11.9278 3.24778 11.2872C3.58915 11.1235 4.3876 10.8089 5.45689 10.7726C5.51544 11.4536 5.68253 12.2041 6.03519 13.0029C6.72134 14.555 7.93923 15.8704 9.33687 16.6419C8.05153 16.5049 6.7299 16.0546 5.776 15.376ZM6.66177 12.7266C5.65137 10.4374 6.31219 8.53916 6.59021 7.91703C6.96307 7.95127 7.66292 8.0694 8.45864 8.45322C8.26724 9.0055 8.13405 9.59338 8.069 10.21C7.8485 12.3243 8.41173 14.4492 9.51594 15.9567C8.31141 15.249 7.26438 14.0897 6.66177 12.7266ZM11.1053 16.6145C11.0981 16.61 11.0909 16.6059 11.0838 16.6018C9.44952 15.362 8.49116 12.7711 8.75035 10.2816C8.82089 9.61667 8.97222 8.98701 9.20094 8.40905C9.77787 6.93985 10.7147 6.11058 11.1046 5.8127C11.4943 6.10989 12.4287 6.93745 13.0049 8.4022C13.237 8.99146 13.3898 9.62386 13.4589 10.2812C13.7208 12.7893 12.7546 15.3812 11.1053 16.6145ZM14.1392 10.2097C14.0749 9.59818 13.9403 9.00789 13.7462 8.44671C14.5299 8.0694 15.2192 7.95196 15.5927 7.91738C15.7615 8.2923 16.1022 9.20682 16.0625 10.4158C16.0368 11.1889 15.8539 11.9665 15.5194 12.7259C14.8932 14.1366 13.8195 15.3466 12.6067 16.0697C13.7691 14.5594 14.3669 12.3856 14.1392 10.2097ZM16.4353 15.3764C15.3979 16.1146 14.1625 16.5563 12.9443 16.6617C14.2827 15.8646 15.4622 14.5423 16.1457 13.0026C16.4679 12.2709 16.6548 11.5224 16.7185 10.7729C17.8015 10.8017 18.5986 11.1122 18.9635 11.2875C18.8947 11.9292 18.5147 13.9055 16.4353 15.3764Z" fill="#192636"/>
</svg>
