<svg width="22" height="23" viewBox="0 0 22 23" fill="none" xmlns="http://www.w3.org/2000/svg">
<mask id="mask0_6_938" style="mask-type:luminance" maskUnits="userSpaceOnUse" x="3" y="4" width="16" height="15">
<path d="M3.69556 4.19563H18.3043V18.8043H3.69556V4.19563Z" fill="white"/>
</mask>
<g mask="url(#mask0_6_938)">
<path d="M11.8834 8.42648C12.2074 10.5395 15.2798 9.98519 15.2798 14.0394C14.2406 14.1005 13.225 13.7144 12.489 12.9783C11.7529 12.2423 10.9387 11.2266 10.9999 10.1875C11.061 11.2266 10.2469 12.2423 9.5108 12.9783C8.77478 13.7144 7.7591 14.1005 6.71997 14.0394C6.71997 9.98519 9.79233 10.5395 10.1163 8.42648" stroke="#192636" stroke-width="0.8" stroke-miterlimit="10"/>
<path d="M12.7118 6.33557C12.7118 7.28105 11.9453 8.9035 10.9998 8.9035C10.0543 8.9035 9.28784 7.28105 9.28784 6.33557C9.28784 5.39008 10.0543 4.62361 10.9998 4.62361C11.9453 4.62361 12.7118 5.39008 12.7118 6.33557Z" stroke="#192636" stroke-width="0.8" stroke-miterlimit="10"/>
<path d="M9.49073 12.9822C9.72909 14.1878 9.67963 14.8575 8.71729 15.6086" stroke="#192636" stroke-width="0.8" stroke-miterlimit="10"/>
<path d="M14.4666 18.3763H10.9999H7.57599C6.24446 18.1861 5.19828 17.1399 5.00806 15.8084C7.3263 15.4923 9.63003 15.0815 10.9999 16.9782C12.3698 15.0815 14.6735 15.4923 16.9918 15.8084C16.8015 17.1399 15.7553 18.1861 14.4238 18.3763" stroke="#192636" stroke-width="0.8" stroke-miterlimit="10"/>
<path d="M12.5089 12.9822C12.2705 14.1878 12.3204 14.8575 13.2828 15.6086" stroke="#192636" stroke-width="0.8" stroke-miterlimit="10"/>
</g>
</svg>
