<svg width="19" height="18" viewBox="0 0 19 18" fill="none" xmlns="http://www.w3.org/2000/svg">
<path d="M9.58058 0.492197C9.5173 0.530869 9.42941 0.622274 9.38371 0.696102C9.33449 0.766415 8.75441 1.92657 8.09347 3.26954C7.42902 4.61251 6.87003 5.73048 6.84543 5.75157C6.82433 5.77267 5.58332 5.96954 4.08917 6.18399C2.59503 6.40196 1.29425 6.60235 1.19582 6.63399C0.788003 6.76759 0.707144 7.11915 0.995425 7.47774C1.05871 7.55509 1.99035 8.47618 3.06964 9.52384C4.47238 10.8879 5.02082 11.4434 5.01027 11.4856C4.93996 11.7774 4.08214 16.9066 4.08214 17.0297C4.08214 17.4797 4.37746 17.6836 4.7923 17.5184C4.87668 17.4867 6.04035 16.882 7.3798 16.1789L9.81261 14.8992L12.2489 16.1789C13.5849 16.882 14.7486 17.4867 14.8329 17.5184C15.2513 17.6871 15.5466 17.4832 15.5396 17.0262C15.5396 16.9137 15.3286 15.6129 15.072 14.1328L14.6009 11.4434L15.9263 10.1461C18.5208 7.59727 18.7318 7.37931 18.7775 7.21759C18.8583 6.9504 18.7247 6.72892 18.4294 6.63399C18.331 6.60235 17.0302 6.40196 15.5361 6.18399C14.0419 5.96954 12.8009 5.77267 12.7763 5.75157C12.7552 5.73048 12.1962 4.61251 11.5353 3.26954C10.8743 1.92657 10.2802 0.759384 10.2204 0.678524C10.0236 0.418369 9.79855 0.351572 9.58058 0.492197ZM11.8939 7.04884C11.9466 7.06641 16.2603 7.69923 16.3376 7.69923C16.3657 7.69923 16.3868 7.71329 16.3868 7.72735C16.3868 7.74142 15.9333 8.19493 15.3778 8.73634C14.8189 9.27423 14.0841 9.99142 13.7431 10.3254L13.1173 10.9336L13.4021 12.593C13.5568 13.507 13.729 14.5231 13.7853 14.85C13.8415 15.177 13.8837 15.4512 13.8767 15.4582C13.8696 15.4652 13.04 15.0363 12.031 14.502C11.0255 13.9711 10.1114 13.493 10.006 13.4402L9.81261 13.3453L9.81613 8.13868V2.93556L10.8321 4.98517C11.3911 6.11017 11.8657 7.03829 11.8939 7.04884Z" fill="#F79E1B"/>
</svg>
