<svg width="28" height="29" viewBox="0 0 28 29" fill="none" xmlns="http://www.w3.org/2000/svg">
<g clip-path="url(#clip0_1_8)">
<path d="M14 28.5C21.732 28.5 28 22.232 28 14.5C28 6.76801 21.732 0.5 14 0.5C6.26801 0.5 0 6.76801 0 14.5C0 22.232 6.26801 28.5 14 28.5Z" fill="#F0F0F0"/>
<path d="M2.89395 5.97656C1.79424 7.40735 0.965014 9.05645 0.482178 10.848H7.76535L2.89395 5.97656Z" fill="#0052B4"/>
<path d="M27.5177 10.8479C27.0348 9.05645 26.2056 7.40735 25.1059 5.97656L20.2346 10.8479H27.5177Z" fill="#0052B4"/>
<path d="M0.482178 18.1522C0.965068 19.9437 1.79429 21.5928 2.89395 23.0235L7.76519 18.1522H0.482178Z" fill="#0052B4"/>
<path d="M22.5234 3.39413C21.0927 2.29442 19.4436 1.46519 17.6521 0.9823V8.26542L22.5234 3.39413Z" fill="#0052B4"/>
<path d="M5.47632 25.6059C6.90711 26.7056 8.55621 27.5348 10.3477 28.0177V20.7346L5.47632 25.6059Z" fill="#0052B4"/>
<path d="M10.3476 0.9823C8.55615 1.46519 6.90705 2.29442 5.47632 3.39407L10.3476 8.26536V0.9823Z" fill="#0052B4"/>
<path d="M17.6521 28.0177C19.4436 27.5348 21.0927 26.7056 22.5234 25.6059L17.6521 20.7346V28.0177Z" fill="#0052B4"/>
<path d="M20.2346 18.1522L25.1059 23.0236C26.2056 21.5928 27.0348 19.9437 27.5177 18.1522H20.2346Z" fill="#0052B4"/>
<path d="M27.8815 12.6739H15.8262H15.8261V0.618508C15.2283 0.540688 14.6189 0.5 14 0.5C13.381 0.5 12.7717 0.540688 12.1739 0.618508V12.6738V12.6739H0.118508C0.0406875 13.2717 0 13.8811 0 14.5C0 15.119 0.0406875 15.7283 0.118508 16.3261H12.1738H12.1739V28.3815C12.7717 28.4593 13.381 28.5 14 28.5C14.6189 28.5 15.2283 28.4594 15.8261 28.3815V16.3262V16.3261H27.8815C27.9593 15.7283 28 15.119 28 14.5C28 13.8811 27.9593 13.2717 27.8815 12.6739Z" fill="#D80027"/>
<path d="M17.6521 18.1523L23.8994 24.3996C24.1867 24.1123 24.4608 23.812 24.7223 23.5008L19.3738 18.1522H17.6521V18.1523Z" fill="#D80027"/>
<path d="M10.3479 18.1522H10.3478L4.10059 24.3994C4.3878 24.6868 4.68809 24.9609 4.99937 25.2224L10.3479 19.8737V18.1522Z" fill="#D80027"/>
<path d="M10.3478 10.8479V10.8478L4.10053 4.60046C3.8132 4.88768 3.5391 5.18797 3.27759 5.49925L8.62619 10.8479L10.3478 10.8479Z" fill="#D80027"/>
<path d="M17.6521 10.8479L23.8994 4.60047C23.6122 4.31314 23.3119 4.03905 23.0006 3.77759L17.6521 9.12619V10.8479Z" fill="#D80027"/>
</g>
<defs>
<clipPath id="clip0_1_8">
<rect width="28" height="28" fill="white" transform="translate(0 0.5)"/>
</clipPath>
</defs>
</svg>
