<svg width="18" height="18" viewBox="0 0 18 18" fill="none" xmlns="http://www.w3.org/2000/svg">
<g clip-path="url(#clip0_41_3102)">
<mask id="mask0_41_3102" style="mask-type:luminance" maskUnits="userSpaceOnUse" x="0" y="0" width="18" height="18">
<path d="M0 9.34601e-05H18V18.0001H0V9.34601e-05Z" fill="white"/>
</mask>
<g mask="url(#mask0_41_3102)">
<path d="M3.62211 3.62221L3.1332 3.13333M14.3779 14.378L14.8668 14.8669M3.62211 14.378L3.1332 14.8669M14.8668 3.13333L14.3779 3.62221M1.39451 9.0001H0.703125M17.2969 9.0001H16.6055M9 16.6056V17.297M9 0.703226V1.39464M13.8398 9.0001C13.8398 11.6731 11.673 13.84 9 13.84C6.327 13.84 4.16014 11.6731 4.16014 9.0001C4.16014 6.3271 6.327 4.16024 9 4.16024C11.673 4.16024 13.8398 6.3271 13.8398 9.0001Z" stroke="#192636" stroke-miterlimit="10" stroke-linecap="round" stroke-linejoin="round"/>
</g>
</g>
<defs>
<clipPath id="clip0_41_3102">
<rect width="18" height="18" fill="white"/>
</clipPath>
</defs>
</svg>
