<svg width="18" height="18" viewBox="0 0 18 18" fill="none" xmlns="http://www.w3.org/2000/svg">
<g clip-path="url(#clip0_41_3814)">
<path d="M9 18C5.27775 18 2.25 14.9715 2.25 11.25V5.625C2.25 5.418 2.418 5.25 2.625 5.25C2.832 5.25 3 5.418 3 5.625V11.25C3 14.5583 5.69175 17.25 9 17.25C12.3082 17.25 15 14.5583 15 11.25V6.375C15 6.168 15.168 6 15.375 6C15.582 6 15.75 6.168 15.75 6.375V11.25C15.75 14.9715 12.7222 18 9 18Z" fill="#192636"/>
<path d="M9 18C6.10575 18 3.75 15.645 3.75 12.75C3.75 9.855 6.10575 7.5 9 7.5C11.8943 7.5 14.25 9.855 14.25 12.75C14.25 15.645 11.8943 18 9 18ZM9 8.25C6.51825 8.25 4.5 10.2683 4.5 12.75C4.5 15.2318 6.51825 17.25 9 17.25C11.4818 17.25 13.5 15.2318 13.5 12.75C13.5 10.2683 11.4818 8.25 9 8.25Z" fill="#192636"/>
<path d="M16.125 6.75H14.625C13.5908 6.75 12.75 5.9085 12.75 4.875V3.375C12.75 3.168 12.918 3 13.125 3H17.625C17.832 3 18 3.168 18 3.375V4.875C18 5.9085 17.1593 6.75 16.125 6.75ZM13.5 3.75V4.875C13.5 5.49525 14.0048 6 14.625 6H16.125C16.7453 6 17.25 5.49525 17.25 4.875V3.75H13.5Z" fill="#192636"/>
<path d="M4.125 6H1.125C0.918 6 0.75 5.832 0.75 5.625V2.625C0.75 2.418 0.918 2.25 1.125 2.25H4.125C4.332 2.25 4.5 2.418 4.5 2.625V5.625C4.5 5.832 4.332 6 4.125 6ZM1.5 5.25H3.75V3H1.5V5.25Z" fill="#192636"/>
<path d="M16.875 3.75C16.668 3.75 16.5 3.582 16.5 3.375V1.5H14.25V3.375C14.25 3.582 14.082 3.75 13.875 3.75C13.668 3.75 13.5 3.582 13.5 3.375V1.125C13.5 0.918 13.668 0.75 13.875 0.75H16.875C17.082 0.75 17.25 0.918 17.25 1.125V3.375C17.25 3.582 17.082 3.75 16.875 3.75Z" fill="#192636"/>
<path d="M3.375 3C3.168 3 3 2.832 3 2.625V0.75H2.25V2.625C2.25 2.832 2.082 3 1.875 3C1.668 3 1.5 2.832 1.5 2.625V0.375C1.5 0.168 1.668 0 1.875 0H3.375C3.582 0 3.75 0.168 3.75 0.375V2.625C3.75 2.832 3.582 3 3.375 3Z" fill="#192636"/>
</g>
<defs>
<clipPath id="clip0_41_3814">
<rect width="18" height="18" fill="white"/>
</clipPath>
</defs>
</svg>
