<svg width="18" height="18" viewBox="0 0 18 18" fill="none" xmlns="http://www.w3.org/2000/svg">
<g clip-path="url(#clip0_41_3839)">
<path d="M14.0078 17.9954C13.2773 17.9954 12.4313 17.7644 11.4593 17.3032C10.3741 16.7887 9.85056 16.8097 9.50631 16.8232C9.22581 16.8352 8.93781 16.8457 8.65131 16.5592C8.55081 16.4587 8.09406 15.9112 8.99181 15.0134C9.43956 14.5657 10.0538 14.4367 10.5871 14.4292L7.47756 11.3197C7.05231 10.8944 7.05306 10.2014 7.47981 9.77469C7.90581 9.34869 8.59881 9.34644 9.02481 9.77244L10.3178 11.0647C10.3688 10.9627 10.4371 10.8674 10.5218 10.7827C10.8181 10.4857 11.2426 10.3949 11.6183 10.5104C11.6708 10.3619 11.7571 10.2224 11.8756 10.1039C12.0818 9.89769 12.3563 9.78369 12.6473 9.78294H12.6496C12.9143 9.78294 13.1641 9.87594 13.3613 10.0477C13.4123 9.94494 13.4813 9.84819 13.5668 9.76269C13.9928 9.33669 14.6858 9.33594 15.1118 9.76044L17.1368 11.7862C18.4073 13.0567 18.2671 14.8972 16.7933 16.3724L15.9443 17.2214C15.4208 17.7382 14.7788 17.9954 14.0078 17.9954ZM9.70956 16.0679C10.1191 16.0679 10.7491 16.1354 11.7811 16.6259C14.0198 17.6879 14.9273 17.1712 15.4163 16.6897L16.2608 15.8452L16.2616 15.8444C17.1556 14.9489 17.7811 13.4917 16.6126 12.3232L14.5816 10.2922C14.4488 10.1594 14.2313 10.1609 14.0978 10.2944C13.9643 10.4279 13.9628 10.6439 14.0948 10.7774L14.6018 11.2844C14.6753 11.3579 14.7113 11.4539 14.7113 11.5499C14.7113 11.6459 14.6746 11.7419 14.6018 11.8154C14.4556 11.9617 14.2178 11.9617 14.0716 11.8154L12.8903 10.6342C12.8266 10.5704 12.7411 10.5352 12.6503 10.5352C12.6503 10.5352 12.6503 10.5352 12.6496 10.5352C12.5581 10.5352 12.4718 10.5712 12.4066 10.6364C12.2723 10.7707 12.2716 10.9874 12.4043 11.1209L13.2481 11.9647C13.3216 12.0382 13.3576 12.1342 13.3576 12.2302C13.3576 12.3262 13.3208 12.4222 13.2481 12.4957C13.1018 12.6419 12.8641 12.6419 12.7178 12.4957L11.5366 11.3144C11.4038 11.1817 11.1871 11.1824 11.0521 11.3159C10.9178 11.4502 10.9171 11.6669 11.0498 11.8004L11.8936 12.6442C11.9671 12.7177 12.0031 12.8137 12.0031 12.9097C12.0031 13.0057 11.9663 13.1017 11.8936 13.1752C11.7473 13.3214 11.5096 13.3214 11.3633 13.1752L8.49456 10.3064C8.36181 10.1737 8.14431 10.1759 8.01006 10.3087C7.87581 10.4429 7.87506 10.6597 8.00781 10.7932L11.8891 14.6744C12.0106 14.7959 12.0338 14.9834 11.9461 15.1304C11.8583 15.2774 11.6813 15.3472 11.5178 15.2992C11.5036 15.2954 10.1596 14.9092 9.52131 15.5474C9.23106 15.8377 9.18831 16.0162 9.19581 16.0567C9.22731 16.0784 9.23406 16.0859 9.47556 16.0769C9.54606 16.0717 9.62331 16.0679 9.70956 16.0679Z" fill="#192636"/>
<path d="M1.125 15.543C0.87 15.543 0.624 15.4575 0.42225 15.2955C0.15375 15.0803 0 14.7593 0 14.415V2.33252C0 1.91177 0.243 1.51802 0.6195 1.32977C4.20225 -0.474732 6.87675 -0.464982 9 1.36877C11.124 -0.464982 13.7977 -0.473982 17.3812 1.33052C17.757 1.51802 18 1.91177 18 2.33252V9.37502C18 9.58202 17.832 9.75002 17.625 9.75002C17.418 9.75002 17.25 9.58202 17.25 9.37502V2.33252C17.25 2.19302 17.1698 2.06327 17.0452 2.00102C13.6357 0.283518 11.1622 0.329268 9.2595 2.14652C9.11475 2.28527 8.88675 2.28527 8.742 2.14652C6.83775 0.329268 4.36425 0.283518 0.95625 2.00027C0.83025 2.06252 0.75 2.19302 0.75 2.33252V14.415C0.75 14.5305 0.80175 14.6378 0.891 14.7105C0.9435 14.7525 1.05525 14.8178 1.209 14.784C3.453 14.2538 5.33175 14.1173 6.9495 14.367C7.15425 14.3985 7.2945 14.5898 7.263 14.7945C7.2315 14.9993 7.03875 15.1388 6.8355 15.108C5.316 14.8748 3.53025 15.0075 1.37625 15.5153C1.29225 15.5333 1.20825 15.543 1.125 15.543Z" fill="#192636"/>
<path d="M9 8.25C8.793 8.25 8.625 8.082 8.625 7.875V1.875C8.625 1.668 8.793 1.5 9 1.5C9.207 1.5 9.375 1.668 9.375 1.875V7.875C9.375 8.082 9.207 8.25 9 8.25Z" fill="#192636"/>
</g>
<defs>
<clipPath id="clip0_41_3839">
<rect width="18" height="18" fill="white"/>
</clipPath>
</defs>
</svg>
