<svg width="18" height="18" viewBox="0 0 18 18" fill="none" xmlns="http://www.w3.org/2000/svg">
<g clip-path="url(#clip0_41_3117)">
<mask id="mask0_41_3117" style="mask-type:luminance" maskUnits="userSpaceOnUse" x="0" y="0" width="18" height="18">
<path d="M0 9.34601e-05H18V18.0001H0V9.34601e-05Z" fill="white"/>
</mask>
<g mask="url(#mask0_41_3117)">
<path d="M12.7266 13.2188C8.94041 13.2188 5.83594 10.1495 5.83594 6.36337C5.83594 3.91861 7.15489 1.74339 9.081 0.529758C9.06553 0.529687 9.05059 0.527437 9.03516 0.527437C4.37527 0.527437 0.527344 4.3402 0.527344 9.00009C0.527344 13.66 4.37527 17.4727 9.03516 17.4727C12.7491 17.4727 15.8957 15.0348 17.0229 11.7014C15.8472 12.649 14.3542 13.2188 12.7266 13.2188Z" stroke="#192636" stroke-width="0.8" stroke-miterlimit="10" stroke-linecap="round" stroke-linejoin="round"/>
<path d="M12.1992 1.58212C12.1992 2.7471 11.2548 3.6915 10.0898 3.6915" stroke="#192636" stroke-width="0.8" stroke-miterlimit="10" stroke-linecap="round" stroke-linejoin="round"/>
<path d="M12.1992 1.58212C12.1992 2.7471 13.1436 3.6915 14.3086 3.6915" stroke="#192636" stroke-width="0.8" stroke-miterlimit="10" stroke-linecap="round" stroke-linejoin="round"/>
<path d="M12.1992 5.83603C12.1992 4.67106 11.2548 3.6915 10.0898 3.6915" stroke="#192636" stroke-width="0.8" stroke-miterlimit="10" stroke-linecap="round" stroke-linejoin="round"/>
<path d="M12.1992 5.83603C12.1992 4.67106 13.1436 3.6915 14.3086 3.6915" stroke="#192636" stroke-width="0.8" stroke-miterlimit="10" stroke-linecap="round" stroke-linejoin="round"/>
</g>
</g>
<defs>
<clipPath id="clip0_41_3117">
<rect width="18" height="18" fill="white"/>
</clipPath>
</defs>
</svg>
