<svg width="17" height="18" viewBox="0 0 17 18" fill="none" xmlns="http://www.w3.org/2000/svg">
<g clip-path="url(#clip0_41_2208)">
<path fill-rule="evenodd" clip-rule="evenodd" d="M3 2.12804C3 0.95279 3.95273 6.10352e-05 5.12798 6.10352e-05H11.9375C13.1127 6.10352e-05 14.0655 0.95279 14.0655 2.12804V15.7471C14.0655 16.9223 13.1127 17.8751 11.9375 17.8751H5.12798C3.95273 17.8751 3 16.9223 3 15.7471V2.12804ZM5.12798 0.851251C4.42282 0.851251 3.85119 1.42289 3.85119 2.12804V15.7471C3.85119 16.4522 4.42282 17.0239 5.12798 17.0239H11.9375C12.6426 17.0239 13.2143 16.4522 13.2143 15.7471V2.12804C13.2143 1.42289 12.6426 0.851251 11.9375 0.851251H5.12798Z" fill="#192636"/>
<path fill-rule="evenodd" clip-rule="evenodd" d="M5.55347 0.425656C5.55347 0.190609 5.74401 6.10352e-05 5.97906 6.10352e-05H11.0862C11.3212 6.10352e-05 11.5118 0.190609 11.5118 0.425656V1.27685C11.5118 1.982 10.9401 2.55363 10.235 2.55363H6.83025C6.1251 2.55363 5.55347 1.982 5.55347 1.27685V0.425656ZM6.40466 0.851252V1.27685C6.40466 1.51189 6.5952 1.70244 6.83025 1.70244H10.235C10.47 1.70244 10.6606 1.51189 10.6606 1.27685V0.851252H6.40466Z" fill="#192636"/>
<mask id="mask0_41_2208" style="mask-type:luminance" maskUnits="userSpaceOnUse" x="3" y="4" width="11" height="11">
<path d="M3 4.00006H14V15.0001H3V4.00006Z" fill="white"/>
</mask>
<g mask="url(#mask0_41_2208)">
<path d="M10.7624 9.7209C10.1254 9.08037 9.31503 8.74809 8.49254 8.74811C7.67008 8.74813 6.85952 9.08041 6.22266 9.7209" stroke="#192636" stroke-width="0.8" stroke-miterlimit="10" stroke-linecap="round" stroke-linejoin="round"/>
<path d="M9.65808 10.8814C9.34553 10.5692 8.89887 10.3809 8.49986 10.3809H8.47973C8.08074 10.3809 7.62847 10.5692 7.31592 10.8814" stroke="#192636" stroke-width="0.8" stroke-miterlimit="10" stroke-linecap="round" stroke-linejoin="round"/>
<path d="M8.5 11.627C8.79663 11.627 9.03711 11.8675 9.03711 12.1641C9.03711 12.4608 8.79663 12.7012 8.5 12.7012C8.20337 12.7012 7.96289 12.4608 7.96289 12.1641C7.96289 11.8675 8.20337 11.627 8.5 11.627Z" fill="#192636"/>
<path d="M11.7819 8.56914C10.869 7.58973 9.68445 7.13675 8.49988 7.13677C7.31537 7.1368 6.13082 7.58975 5.21802 8.56914" stroke="#192636" stroke-width="0.8" stroke-miterlimit="10" stroke-linecap="round" stroke-linejoin="round"/>
</g>
</g>
<defs>
<clipPath id="clip0_41_2208">
<rect width="17" height="18" fill="white"/>
</clipPath>
</defs>
</svg>
