<svg width="19" height="18" viewBox="0 0 19 18" fill="none" xmlns="http://www.w3.org/2000/svg">
<g clip-path="url(#clip0_41_2189)">
<path d="M13.6 9.00006C13.6 11.4612 13.2817 13.6469 12.5919 15.2018C11.9073 16.7452 10.8959 17.6001 9.5 17.6001C8.68009 17.6001 8.03673 17.3726 7.52238 16.976C7.00265 16.5753 6.58896 15.9816 6.26952 15.2109C5.62618 13.6586 5.4 11.475 5.4 9.00006C5.4 6.5251 5.62618 4.34155 6.26952 2.78925C6.58896 2.01848 7.00265 1.42485 7.52238 1.02409C8.03673 0.627482 8.68009 0.400061 9.5 0.400061C10.8514 0.400061 11.8644 1.25206 12.5612 2.80027C13.2613 4.35589 13.6 6.54186 13.6 9.00006Z" stroke="#192636" stroke-width="0.8"/>
<path d="M10.8443 5.27194C10.8443 6.09347 10.8406 6.93512 10.6408 7.57307C10.5433 7.88425 10.4086 8.11277 10.2343 8.26325C10.0672 8.40746 9.83124 8.50831 9.46971 8.50831C9.10817 8.50831 8.87222 8.40746 8.70516 8.26326C8.53083 8.11279 8.39619 7.88427 8.29876 7.57309C8.099 6.93513 8.09531 6.09349 8.09531 5.27194C8.09531 4.51399 8.2466 3.86146 8.50297 3.41364C8.75408 2.97501 9.082 2.76285 9.46971 2.76285C9.85743 2.76285 10.1854 2.97502 10.4365 3.41366C10.6929 3.86149 10.8443 4.514 10.8443 5.27194Z" stroke="#192636" stroke-width="0.8"/>
<path d="M3 6.00006C2.24538 7.16673 1.1889 10.6001 3 15.0001" stroke="#192636" stroke-width="0.8" stroke-linecap="round"/>
<path d="M16 6.00006C16.7546 7.16673 17.8111 10.6001 16 15.0001" stroke="#192636" stroke-width="0.8" stroke-linecap="round"/>
</g>
<defs>
<clipPath id="clip0_41_2189">
<rect width="19" height="18" fill="white"/>
</clipPath>
</defs>
</svg>
