<svg width="18" height="18" viewBox="0 0 18 18" fill="none" xmlns="http://www.w3.org/2000/svg">
<g clip-path="url(#clip0_41_2233)">
<mask id="mask0_41_2233" style="mask-type:luminance" maskUnits="userSpaceOnUse" x="0" y="0" width="18" height="18">
<path d="M0 6.29425e-05H18V18.0001H0V6.29425e-05Z" fill="white"/>
</mask>
<g mask="url(#mask0_41_2233)">
<path d="M3.96149 12.5233L2.93764 9.88048C2.89848 9.77948 2.87566 9.6757 2.8688 9.5729L2.8687 9.57111M2.8687 9.57111C2.86388 9.50445 2.86599 9.43783 2.87425 9.37258M2.8687 9.57111L2.87425 9.37258M2.87425 9.37258V9.3711M2.87425 9.3711C2.88698 9.26802 2.91496 9.1679 2.95694 9.07364C3.06948 8.82003 3.28147 8.61025 3.56556 8.50795C4.10985 8.31202 4.71032 8.60188 4.91876 9.14012L5.4897 10.6134C5.64572 11.0162 5.97046 11.3322 6.37954 11.4744C7.30517 11.797 8.04226 12.5866 8.2836 13.598L8.88928 15.9449L8.99998 16.3739L4.71894 17.4725C4.50406 16.6725 4.04489 15.9582 3.40462 15.4295L1.90957 14.1953C0.920444 13.1513 0.42446 11.7372 0.545186 10.3064L1.00011 4.58032C1.03424 4.17807 1.29746 3.85642 1.64484 3.72297C1.82199 3.65463 2.02003 3.63504 2.22154 3.67804C2.69622 3.7795 3.03144 4.20239 3.02128 4.68639L2.87425 9.3711Z" stroke="#192636" stroke-width="0.8" stroke-miterlimit="10" stroke-linecap="round" stroke-linejoin="round"/>
<path d="M15.1313 9.57127L15.1312 9.57307C15.1243 9.67586 15.1015 9.77964 15.0623 9.88065L14.0385 12.5235M15.1313 9.57127L15.1257 9.37275M15.1313 9.57127C15.1361 9.50462 15.134 9.438 15.1257 9.37275M15.1257 9.37275V9.37127M15.1257 9.37127L14.9787 4.68656C14.9685 4.20256 15.3038 3.77967 15.7784 3.67821C15.98 3.63521 16.178 3.65479 16.3551 3.72314C16.7025 3.85655 16.9657 4.17823 16.9999 4.58049L17.4548 10.3066C17.5755 11.7374 17.0795 13.1515 16.0904 14.1954L14.5954 15.4297C13.9551 15.9584 13.4959 16.6726 13.281 17.4727L9 16.374L9.11071 15.9451L9.71638 13.5982C9.95773 12.5867 10.6948 11.7972 11.6204 11.4746C12.0295 11.3324 12.3543 11.0164 12.5103 10.6135L13.0812 9.14026C13.2897 8.60205 13.8901 8.31219 14.4344 8.50811C14.7185 8.61042 14.9305 8.82019 15.043 9.07381C15.085 9.16803 15.113 9.26819 15.1257 9.37127Z" stroke="#192636" stroke-width="0.8" stroke-miterlimit="10" stroke-linecap="round" stroke-linejoin="round"/>
<path d="M11.8089 0.966205C12.3938 1.5512 12.3937 2.49954 11.8086 3.08444L11.1182 3.77473L9.00006 5.89286L6.88193 3.77473L6.19153 3.08444C5.6065 2.49954 5.60639 1.5512 6.19129 0.966205C6.77622 0.38117 7.72463 0.381134 8.30963 0.966099L9.00006 1.65657L9.69053 0.966099C10.2755 0.381134 11.2239 0.38117 11.8089 0.966205Z" stroke="#192636" stroke-width="0.8" stroke-miterlimit="10" stroke-linecap="round" stroke-linejoin="round"/>
</g>
</g>
<defs>
<clipPath id="clip0_41_2233">
<rect width="18" height="18" fill="white"/>
</clipPath>
</defs>
</svg>
