<svg width="18" height="18" viewBox="0 0 18 18" fill="none" xmlns="http://www.w3.org/2000/svg">
<path fill-rule="evenodd" clip-rule="evenodd" d="M15.375 1.9395C15.375 0.869249 14.5058 0 13.4355 0H4.56451C3.49426 0 2.62502 0.869249 2.62502 1.9395V16.0605C2.62502 17.1308 3.49426 18 4.56451 18H13.4355C14.5058 18 15.375 17.1308 15.375 16.0605V1.9395ZM14.625 3.999C13.1235 4.7655 8.85002 6.75 4.81802 6.75C4.26377 6.75 3.75977 6.55875 3.37502 6.2445V16.0605C3.37502 16.7168 3.90826 17.25 4.56451 17.25H13.4355C14.0918 17.25 14.625 16.7168 14.625 16.0605V3.999ZM14.625 3.153V1.9395C14.625 1.28325 14.0918 0.75 13.4355 0.75H4.56451C3.90826 0.75 3.37502 1.28325 3.37502 1.9395V4.7085C3.37502 5.43075 4.03052 6 4.81802 6C9.09452 6 13.6515 3.67725 14.625 3.153ZM4.87502 3.375C4.25402 3.375 3.75002 3.879 3.75002 4.5C3.75002 5.121 4.25402 5.625 4.87502 5.625C5.49602 5.625 6.00002 5.121 6.00002 4.5C6.00002 3.879 5.49602 3.375 4.87502 3.375ZM4.87502 4.125C5.08202 4.125 5.25002 4.293 5.25002 4.5C5.25002 4.707 5.08202 4.875 4.87502 4.875C4.66802 4.875 4.50002 4.707 4.50002 4.5C4.50002 4.293 4.66802 4.125 4.87502 4.125Z" fill="#192636"/>
</svg>
