<svg width="18" height="18" viewBox="0 0 18 18" fill="none" xmlns="http://www.w3.org/2000/svg">
<path fill-rule="evenodd" clip-rule="evenodd" d="M4 2.12798C4 0.952729 4.95273 0 6.12798 0H12.9375C14.1127 0 15.0655 0.952729 15.0655 2.12798V15.747C15.0655 16.9223 14.1127 17.875 12.9375 17.875H6.12798C4.95273 17.875 4 16.9223 4 15.747V2.12798ZM6.12798 0.85119C5.42282 0.85119 4.85119 1.42282 4.85119 2.12798V15.747C4.85119 16.4522 5.42282 17.0238 6.12798 17.0238H12.9375C13.6426 17.0238 14.2143 16.4522 14.2143 15.747V2.12798C14.2143 1.42282 13.6426 0.85119 12.9375 0.85119H6.12798Z" fill="#192636"/>
<path fill-rule="evenodd" clip-rule="evenodd" d="M6.55357 0.425595C6.55357 0.190547 6.74412 0 6.97917 0H12.0863C12.3213 0 12.5119 0.190547 12.5119 0.425595V1.27679C12.5119 1.98194 11.9402 2.55357 11.2351 2.55357H7.83036C7.12521 2.55357 6.55357 1.98194 6.55357 1.27679V0.425595ZM7.40476 0.851191V1.27679C7.40476 1.51183 7.59531 1.70238 7.83036 1.70238H11.2351C11.4701 1.70238 11.6607 1.51183 11.6607 1.27679V0.851191H7.40476Z" fill="#192636"/>
</svg>
