<svg width="18" height="18" viewBox="0 0 18 18" fill="none" xmlns="http://www.w3.org/2000/svg">
<path d="M13.6 9C13.6 11.4608 13.2785 13.646 12.582 15.2004C11.8911 16.7423 10.8689 17.6 9.45447 17.6C8.62449 17.6 7.97318 17.372 7.45282 16.9748C6.92732 16.5736 6.50952 15.9799 6.18701 15.2095C5.53739 13.6578 5.30894 11.4748 5.30894 9C5.30894 6.52521 5.53739 4.34225 6.18701 2.79051C6.50952 2.02014 6.92732 1.42636 7.45282 1.02521C7.97318 0.627993 8.62449 0.4 9.45447 0.4C10.824 0.4 11.8477 1.2548 12.5509 2.80158C13.2579 4.35673 13.6 6.54214 13.6 9Z" stroke="#192636" stroke-width="0.8"/>
<path d="M10.8163 5.27188C10.8163 6.09356 10.8125 6.93456 10.6109 7.57191C10.5126 7.88256 10.3767 8.11109 10.2002 8.2619C10.0307 8.40676 9.79084 8.50825 9.42377 8.50825C9.05671 8.50825 8.81685 8.40676 8.64734 8.2619C8.47087 8.11111 8.33502 7.88258 8.23676 7.57193C8.03517 6.93457 8.03142 6.09357 8.03142 5.27188C8.03142 4.5145 8.18412 3.86256 8.44288 3.41508C8.69609 2.97719 9.02828 2.76279 9.42377 2.76279C9.81928 2.76279 10.1515 2.97721 10.4048 3.4151C10.6636 3.86258 10.8163 4.51452 10.8163 5.27188Z" stroke="#192636" stroke-width="0.8"/>
</svg>
