<svg width="17" height="16" viewBox="0 0 17 16" fill="none" xmlns="http://www.w3.org/2000/svg">
<path d="M8.34566 0.455517C8.28941 0.480126 8.21558 0.532861 8.18394 0.568017C8.1523 0.606688 7.63902 1.62271 7.04488 2.83208C6.45074 4.04146 5.95503 5.03989 5.94097 5.05396C5.93042 5.0645 4.81245 5.23677 3.45894 5.43364C1.70464 5.68677 0.96636 5.8063 0.892532 5.852C0.656985 5.98911 0.551517 6.34419 0.678079 6.58677C0.706204 6.6395 1.43745 7.37427 2.30581 8.21802C3.17066 9.06177 3.97222 9.84575 4.08472 9.95825L4.28511 10.1657L3.86324 12.6266C3.42027 15.2141 3.42378 15.1895 3.56441 15.404C3.6523 15.5375 3.88433 15.6395 4.06011 15.6184C4.16558 15.6079 4.81597 15.2844 6.39097 14.4547C7.59331 13.8254 8.59175 13.3086 8.61284 13.3086C8.63042 13.3086 9.62534 13.8219 10.8207 14.4512C12.016 15.0805 13.0425 15.6043 13.1023 15.6149C13.2781 15.65 13.4503 15.6008 13.5804 15.4778C13.816 15.2563 13.823 15.3583 13.3554 12.6231L12.9335 10.1657L13.0988 9.99341C13.1937 9.89849 13.9918 9.1145 14.8812 8.25317C15.7671 7.38833 16.5125 6.6395 16.5406 6.58677C16.6671 6.34419 16.5617 5.98911 16.3261 5.84849C16.2488 5.8063 15.5386 5.69028 13.7597 5.43013C12.4062 5.23677 11.2882 5.0645 11.2777 5.05044C11.2636 5.03989 10.7679 4.04146 10.1738 2.83208C9.57964 1.62271 9.06636 0.606688 9.03472 0.568017C8.90464 0.416845 8.56363 0.360595 8.34566 0.455517Z" fill="#F79E1B"/>
</svg>
