<svg width="24" height="24" viewBox="0 0 24 24" fill="none" xmlns="http://www.w3.org/2000/svg">
<path d="M9.29008 17.29C9.38259 17.3827 9.49248 17.4562 9.61345 17.5064C9.73442 17.5566 9.86411 17.5824 9.99508 17.5824C10.126 17.5824 10.2557 17.5566 10.3767 17.5064C10.4977 17.4562 10.6076 17.3827 10.7001 17.29L15.2901 12.7C15.3828 12.6075 15.4563 12.4976 15.5065 12.3766C15.5567 12.2556 15.5825 12.126 15.5825 11.995C15.5825 11.864 15.5567 11.7343 15.5065 11.6134C15.4563 11.4924 15.3828 11.3825 15.2901 11.29L10.7001 6.7C10.6075 6.60742 10.4976 6.53398 10.3766 6.48387C10.2557 6.43377 10.126 6.40798 9.99508 6.40798C9.86415 6.40798 9.7345 6.43377 9.61353 6.48387C9.49257 6.53398 9.38266 6.60742 9.29008 6.7C9.19749 6.79258 9.12405 6.90249 9.07395 7.02346C9.02384 7.14442 8.99806 7.27407 8.99806 7.405C8.99806 7.53593 9.02384 7.66558 9.07395 7.78654C9.12405 7.90751 9.19749 8.01742 9.29008 8.11L13.1701 12L9.29008 15.88C8.90008 16.27 8.91008 16.91 9.29008 17.29Z" fill="#677A45"/>
</svg>
