<svg width="24" height="24" viewBox="0 0 24 24" fill="none" xmlns="http://www.w3.org/2000/svg">
<path d="M9.28995 17.29C9.38247 17.3827 9.49236 17.4563 9.61333 17.5064C9.7343 17.5566 9.86398 17.5825 9.99495 17.5825C10.1259 17.5825 10.2556 17.5566 10.3766 17.5064C10.4976 17.4563 10.6074 17.3827 10.7 17.29L15.29 12.7C15.3827 12.6075 15.4562 12.4976 15.5064 12.3766C15.5566 12.2557 15.5824 12.126 15.5824 11.995C15.5824 11.864 15.5566 11.7344 15.5064 11.6134C15.4562 11.4924 15.3827 11.3825 15.29 11.29L10.7 6.70002C10.6074 6.60743 10.4975 6.53399 10.3765 6.48389C10.2555 6.43378 10.1259 6.40799 9.99495 6.40799C9.86402 6.40799 9.73437 6.43378 9.61341 6.48389C9.49244 6.53399 9.38253 6.60743 9.28995 6.70002C9.19737 6.7926 9.12393 6.90251 9.07383 7.02347C9.02372 7.14444 8.99793 7.27408 8.99793 7.40502C8.99793 7.53595 9.02372 7.66559 9.07383 7.78656C9.12393 7.90752 9.19737 8.01743 9.28995 8.11001L13.17 12L9.28995 15.88C8.89995 16.27 8.90995 16.91 9.28995 17.29Z" fill="white"/>
</svg>
