<svg width="24" height="24" viewBox="0 0 24 24" fill="none" xmlns="http://www.w3.org/2000/svg">
<path d="M12 23C10.55 23 9.1 22.7 7.8 22.15C6.45 21.6 5.25 20.8 4.25 19.75C3.2 18.75 2.4 17.55 1.85 16.2C1.3 14.85 1 13.45 1 12C1 10.55 1.3 9.15 1.85 7.8C2.4 6.45 3.2 5.25 4.25 4.25C5.25 3.2 6.45 2.4 7.8 1.85C9.15 1.3 10.55 1 12 1C13.45 1 14.85 1.3 16.2 1.85C17.55 2.4 18.75 3.2 19.75 4.25C20.8 5.25 21.6 6.45 22.15 7.8C22.7 9.15 23 10.55 23 12C23 13.45 22.7 14.85 22.15 16.2C21.6 17.55 20.8 18.75 19.75 19.75C18.75 20.8 17.55 21.6 16.2 22.15C14.85 22.7 13.45 23 12 23ZM12 21C13.2 21 14.35 20.75 15.45 20.3C16.55 19.85 17.55 19.2 18.35 18.35C19.2 17.5 19.85 16.55 20.3 15.45C20.75 14.35 21 13.2 21 12C21 10.8 20.75 9.65 20.3 8.55C19.85 7.45 19.2 6.45 18.35 5.65C17.5 4.8 16.55 4.15 15.45 3.7C14.35 3.25 13.2 3 12 3C10.8 3 9.65 3.25 8.55 3.7C7.45 4.15 6.45 4.8 5.65 5.65C4.8 6.5 4.15 7.45 3.7 8.55C3.25 9.65 3 10.8 3 12C3 13.2 3.25 14.35 3.7 15.45C4.15 16.55 4.8 17.55 5.65 18.35C6.5 19.2 7.45 19.85 8.55 20.3C9.65 20.75 10.8 21.05 12 21Z" fill="#D4A5B4"/>
<path d="M12 18.5C12.35 18.5 12.65 18.35 12.9 18.15C13.15 17.9 13.25 17.6 13.25 17.25C13.25 16.9 13.1 16.6 12.9 16.35C12.65 16.15 12.35 16 12 16C11.65 16 11.35 16.15 11.1 16.35C10.85 16.6 10.75 16.9 10.75 17.25C10.75 17.6 10.9 17.9 11.1 18.15C11.35 18.35 11.65 18.5 12 18.5Z" fill="#D4A5B4"/>
<path d="M12 15C11.45 15 11 14.55 11 14V6C11 5.45 11.45 5 12 5C12.55 5 13 5.45 13 6V14C13 14.55 12.55 15 12 15Z" fill="#D4A5B4"/>
</svg>
