<svg width="28" height="24" viewBox="0 0 28 24" fill="none" xmlns="http://www.w3.org/2000/svg">
<path d="M16.7728 6.70999C16.6673 6.61728 16.542 6.54373 16.404 6.49355C16.2661 6.44337 16.1182 6.41754 15.9689 6.41754C15.8195 6.41754 15.6716 6.44337 15.5337 6.49355C15.3958 6.54373 15.2705 6.61728 15.165 6.70999L9.93112 11.3C9.82541 11.3925 9.74155 11.5024 9.68433 11.6234C9.62711 11.7443 9.59766 11.874 9.59766 12.005C9.59766 12.136 9.62711 12.2656 9.68433 12.3866C9.74155 12.5076 9.82541 12.6175 9.93112 12.71L15.165 17.3C15.2705 17.3926 15.3959 17.466 15.5338 17.5161C15.6717 17.5662 15.8196 17.592 15.9689 17.592C16.1182 17.592 16.266 17.5662 16.4039 17.5161C16.5419 17.466 16.6672 17.3926 16.7728 17.3C16.8783 17.2074 16.9621 17.0975 17.0192 16.9765C17.0763 16.8556 17.1057 16.7259 17.1057 16.595C17.1057 16.4641 17.0763 16.3344 17.0192 16.2134C16.9621 16.0925 16.8783 15.9826 16.7728 15.89L12.3485 12L16.7728 8.11999C17.2175 7.72999 17.2061 7.08999 16.7728 6.70999Z" fill="#677A45"/>
</svg>
