<svg width="16" height="16" viewBox="0 0 16 16" fill="none" xmlns="http://www.w3.org/2000/svg">
<path d="M7.99935 10.3834C7.91046 10.3834 7.82713 10.3696 7.74935 10.3421C7.67157 10.3145 7.59935 10.2672 7.53268 10.2001L5.13268 7.80008C5.01046 7.67786 4.94935 7.52231 4.94935 7.33342C4.94935 7.14453 5.01046 6.98897 5.13268 6.86675C5.25491 6.74453 5.41335 6.68075 5.60802 6.67542C5.80268 6.67008 5.96091 6.72831 6.08268 6.85008L7.33268 8.10008V3.33342C7.33268 3.14453 7.39668 2.98608 7.52468 2.85808C7.65268 2.73008 7.81091 2.66631 7.99935 2.66675C8.18824 2.66675 8.34668 2.73075 8.47468 2.85875C8.60268 2.98675 8.66646 3.14497 8.66602 3.33342V8.10008L9.91602 6.85008C10.0382 6.72786 10.1967 6.66942 10.3914 6.67475C10.586 6.68008 10.7442 6.74408 10.866 6.86675C10.9882 6.98897 11.0494 7.14453 11.0494 7.33342C11.0494 7.52231 10.9882 7.67786 10.866 7.80008L8.46602 10.2001C8.39935 10.2668 8.32713 10.3141 8.24935 10.3421C8.17157 10.3701 8.08824 10.3839 7.99935 10.3834ZM3.99935 13.3334C3.63268 13.3334 3.31868 13.2028 3.05735 12.9414C2.79602 12.6801 2.66557 12.3663 2.66602 12.0001V10.6668C2.66602 10.4779 2.73002 10.3194 2.85802 10.1914C2.98602 10.0634 3.14424 9.99964 3.33268 10.0001C3.52157 10.0001 3.68002 10.0641 3.80802 10.1921C3.93602 10.3201 3.99979 10.4783 3.99935 10.6668V12.0001H11.9994V10.6668C11.9994 10.4779 12.0634 10.3194 12.1914 10.1914C12.3194 10.0634 12.4776 9.99964 12.666 10.0001C12.8549 10.0001 13.0134 10.0641 13.1414 10.1921C13.2694 10.3201 13.3331 10.4783 13.3327 10.6668V12.0001C13.3327 12.3668 13.202 12.6808 12.9407 12.9421C12.6794 13.2034 12.3656 13.3339 11.9994 13.3334H3.99935Z" fill="#BFA575"/>
</svg>
