<svg width="24" height="24" viewBox="0 0 24 24" fill="none" xmlns="http://www.w3.org/2000/svg">
<path d="M15.5 12C17.5773 13.0755 19 15.3182 19 18.3636V22H5V18.3636C5 15.3145 6.42713 13.0682 8.5 12M17.25 7.45455C17.25 8.17085 17.1142 8.88013 16.8504 9.54191C16.5865 10.2037 16.1998 10.805 15.7123 11.3115C15.2248 11.818 14.646 12.2198 14.0091 12.4939C13.3721 12.768 12.6894 12.9091 12 12.9091C10.6076 12.9091 9.27226 12.3344 8.28769 11.3115C7.30312 10.2886 6.75 8.90118 6.75 7.45455M17.25 7.45455C17.25 6.73824 17.1142 6.02896 16.8504 5.36718C16.5865 4.70541 16.1998 4.1041 15.7123 3.5976C15.2248 3.0911 14.646 2.68932 14.0091 2.4152C13.3721 2.14109 12.6894 2 12 2C10.6076 2 9.27226 2.57467 8.28769 3.5976C7.30312 4.62053 6.75 6.00791 6.75 7.45455M17.25 7.45455C15.9375 7.45455 14.625 7.78182 12.875 5.63636C11.125 7.78182 8.9375 8.36364 6.75 7.45455M7.625 12.9091L12.0219 17.6882L16.375 12.9091M12 17.4545V22" stroke="#82B8E9" stroke-width="2"/>
</svg>
