<svg width="39" height="48" viewBox="0 0 39 48" fill="none" xmlns="http://www.w3.org/2000/svg">
<g clip-path="url(#clip0_222_1834)">
<path d="M4.95208 -0.000318057C2.2222 -0.000318057 0 2.22581 0 4.95847V43.0405C0 45.7732 2.2222 47.9993 4.95208 47.9993H34.0416C36.7715 47.9993 38.9937 45.7733 38.9937 43.0405V11.7265C38.9937 11.7265 39.0716 10.8095 38.674 9.91727C38.3012 9.08089 37.6937 8.49875 37.6937 8.49875C37.6922 8.4967 37.6907 8.49465 37.6892 8.4926L30.472 1.40602C30.468 1.40198 30.464 1.39798 30.46 1.39402C30.46 1.39402 29.8438 0.806659 28.9304 0.414283C27.8549 -0.0477209 26.7463 0.0010496 26.7463 0.0010496L26.7628 -0.000488281L4.95208 -0.000318057Z" fill="#FF2116"/>
<path d="M4.95186 1.62866H26.7626C26.7681 1.62872 26.7736 1.62872 26.7791 1.62866C26.7791 1.62866 27.6513 1.63712 28.2892 1.91116C28.9032 2.17492 29.3386 2.57417 29.3415 2.57685C29.3415 2.57686 29.3445 2.57993 29.3445 2.57993L36.5437 9.64996C36.5437 9.64996 36.9774 10.1084 37.1877 10.5801C37.3573 10.9609 37.3678 11.6575 37.3678 11.6575C37.367 11.669 37.3665 11.6806 37.3663 11.6921V43.0407C37.3663 44.8994 35.8981 46.3706 34.0414 46.3706H4.95186C3.09509 46.3706 1.62695 44.8995 1.62695 43.0407V4.95863C1.62695 3.09982 3.09509 1.62866 4.95186 1.62866Z" fill="#F5F5F5"/>
<path d="M9.73699 28.5785C8.61744 27.4578 9.82871 25.9178 13.1159 24.2824L15.1843 23.2535L15.9901 21.4885C16.4333 20.5178 17.0947 18.934 17.46 17.9689L18.1241 16.2141L17.6664 14.9154C17.1037 13.3186 16.9031 10.9191 17.2601 10.0562C17.7437 8.8875 19.3277 9.00741 19.9549 10.2602C20.4446 11.2387 20.3946 13.0106 19.814 15.2453L19.338 17.0773L19.7573 17.7898C19.9879 18.1817 20.6614 19.1121 21.254 19.8574L22.3678 21.2444L23.7538 21.0633C28.1569 20.4882 29.665 21.4657 29.665 22.8673C29.665 24.6362 26.2076 24.7822 23.3044 22.7409C22.6511 22.2816 22.2025 21.8254 22.2025 21.8254C22.2025 21.8254 20.3837 22.1961 19.4882 22.4377C18.5639 22.6871 18.1027 22.8433 16.7487 23.3008C16.7487 23.3008 16.2736 23.9914 15.964 24.4935C14.8123 26.3614 13.4675 27.9095 12.5071 28.4729C11.4318 29.1037 10.3046 29.1467 9.73699 28.5785ZM11.4939 27.9502C12.1233 27.5609 13.397 26.0528 14.2787 24.6531L14.6357 24.0864L13.0103 24.9045C10.4997 26.1681 9.35121 27.3591 9.94843 28.0794C10.2839 28.4841 10.6853 28.4505 11.4939 27.9502ZM27.8012 23.3681C28.4168 22.9365 28.3274 22.0667 27.6315 21.7161C27.0899 21.4432 26.6534 21.3871 25.2466 21.4079C24.382 21.4669 22.9918 21.6413 22.7562 21.6944C22.7562 21.6944 23.5199 22.2228 23.859 22.417C24.3104 22.6751 25.4073 23.1541 26.2081 23.3995C26.998 23.6416 27.455 23.6161 27.8012 23.3681ZM21.2443 20.6399C20.8718 20.2479 20.2383 19.4298 19.8367 18.8218C19.3113 18.1321 19.0479 17.6455 19.0479 17.6455C19.0479 17.6455 18.6639 18.8818 18.3489 19.6258L17.3661 22.0576L17.0812 22.6092C17.0812 22.6092 18.596 22.112 19.3668 21.9104C20.1831 21.697 21.8399 21.3708 21.8399 21.3708L21.2443 20.6399ZM19.1312 12.1571C19.2262 11.3589 19.2666 10.5619 19.0104 10.16C18.2998 9.3823 17.4421 10.0308 17.5874 11.8796C17.6362 12.5016 17.7906 13.5648 17.9969 14.2201L18.3721 15.4116L18.6362 14.5142C18.7814 14.0206 19.0042 12.9599 19.1312 12.1571Z" fill="#FF2116"/>
<path d="M11.6406 33.7683H13.4582C14.039 33.7683 14.5105 33.8239 14.8726 33.9352C15.2346 34.0429 15.5394 34.2851 15.7867 34.6619C16.0341 35.0352 16.1578 35.4856 16.1578 36.0131C16.1578 36.4976 16.0574 36.9139 15.8567 37.262C15.6559 37.6101 15.3852 37.8614 15.0446 38.0157C14.7076 38.17 14.1878 38.2472 13.4851 38.2472H12.856V41.1164H11.6406V33.7683ZM12.856 34.7104V37.2728H13.4582C13.996 37.2728 14.3671 37.1723 14.5714 36.9713C14.7793 36.7704 14.8833 36.4438 14.8833 35.9916C14.8833 35.6542 14.8152 35.3815 14.679 35.1733C14.5427 34.9616 14.3922 34.8324 14.2272 34.7857C14.0659 34.7355 13.8096 34.7103 13.4582 34.7103L12.856 34.7104ZM17.0881 33.7683H18.739C19.5385 33.7683 20.1766 33.9101 20.6535 34.1936C21.1339 34.4771 21.4959 34.8988 21.7397 35.4586C21.9871 36.0185 22.1108 36.6394 22.1108 37.3212C22.1108 38.039 21.9996 38.6796 21.7774 39.2431C21.5587 39.8029 21.2217 40.2551 20.7664 40.5996C20.3147 40.9442 19.6694 41.1164 18.8305 41.1164H17.0881V33.7683ZM18.3035 34.7427V40.1421H18.8089C19.5152 40.1421 20.0279 39.898 20.3469 39.4099C20.666 38.9183 20.8255 38.2633 20.8255 37.4451C20.8255 35.6435 20.1533 34.7427 18.8089 34.7427H18.3035ZM23.2777 33.7683H27.3539V34.7427H24.4931V36.939H26.7839V37.9134H24.4931V41.1164H23.2777V33.7683Z" fill="#2C2C2C"/>
</g>
<defs>
<clipPath id="clip0_222_1834">
<rect width="39" height="48" fill="white"/>
</clipPath>
</defs>
</svg>
